# xmcd
#
# Track frame offsets: 
#        150
#        16615
#        28882
#        44685
#        55462
#        75785
#        86432
#        100027
#        112980
#        130355
#        146337
#        160297
#
# Disc length: 2379 seconds
#
# Revision: 3
# Processed by: cddbd v1.5.1PL2 Copyright (c) Steve Scherf et al.
# Submitted via: ExactAudioCopy v0.95b3
#
DISCID=8e09490c
DTITLE=Marlee MacLeod - Favorite Ball and Chain
DYEAR=1995
DGENRE=Rock
TTITLE0=Las Vegas
TTITLE1=Nothing Up My Sleeve
TTITLE2=Nobody To Me
TTITLE3=Telling Me The Truth
TTITLE4=In Trouble Again
TTITLE5=Lover Let Me Be
TTITLE6=Everything You Know Is Wrong
TTITLE7=Don't Ask Me
TTITLE8=Walk
TTITLE9=Keeper
TTITLE10=Janesville Oasis
TTITLE11=Frances
EXTD=
EXTT0=
EXTT1=
EXTT2=
EXTT3=
EXTT4=
EXTT5=
EXTT6=
EXTT7=
EXTT8=
EXTT9=
EXTT10=
EXTT11=
PLAYORDER=
